<svg xmlns="http://www.w3.org/2000/svg" viewBox="0 0 100 100">
  <line x1="12.000" y1="40.000" x2="14.053" y2="45.511" stroke="#8755fe" stroke-width="3.19" stroke-linecap="round"/>
  <line x1="14.053" y1="45.511" x2="16.651" y2="50.551" stroke="#8556fd" stroke-width="3.18" stroke-linecap="round"/>
  <line x1="16.651" y1="50.551" x2="19.717" y2="55.077" stroke="#8457fd" stroke-width="3.17" stroke-linecap="round"/>
  <line x1="19.717" y1="55.077" x2="23.171" y2="59.058" stroke="#8358fc" stroke-width="3.16" stroke-linecap="round"/>
  <line x1="23.171" y1="59.058" x2="26.935" y2="62.471" stroke="#8159fb" stroke-width="3.15" stroke-linecap="round"/>
  <line x1="26.935" y1="62.471" x2="30.929" y2="65.307" stroke="#805afa" stroke-width="3.14" stroke-linecap="round"/>
  <line x1="30.929" y1="65.307" x2="35.078" y2="67.562" stroke="#7f5bfa" stroke-width="3.13" stroke-linecap="round"/>
  <line x1="35.078" y1="67.562" x2="39.309" y2="69.245" stroke="#7d5cf9" stroke-width="3.12" stroke-linecap="round"/>
  <line x1="39.309" y1="69.245" x2="43.552" y2="70.370" stroke="#7c5df8" stroke-width="3.11" stroke-linecap="round"/>
  <line x1="43.552" y1="70.370" x2="47.742" y2="70.959" stroke="#7b5ef7" stroke-width="3.10" stroke-linecap="round"/>
  <line x1="47.742" y1="70.959" x2="51.821" y2="71.042" stroke="#795ef7" stroke-width="3.08" stroke-linecap="round"/>
  <line x1="51.821" y1="71.042" x2="55.736" y2="70.654" stroke="#785ff6" stroke-width="3.07" stroke-linecap="round"/>
  <line x1="55.736" y1="70.654" x2="59.438" y2="69.832" stroke="#7760f5" stroke-width="3.06" stroke-linecap="round"/>
  <line x1="59.438" y1="69.832" x2="62.887" y2="68.621" stroke="#7561f4" stroke-width="3.05" stroke-linecap="round"/>
  <line x1="62.887" y1="68.621" x2="66.050" y2="67.065" stroke="#7462f4" stroke-width="3.04" stroke-linecap="round"/>
  <line x1="66.050" y1="67.065" x2="68.899" y2="65.213" stroke="#7263f3" stroke-width="3.03" stroke-linecap="round"/>
  <line x1="68.899" y1="65.213" x2="71.413" y2="63.113" stroke="#7164f2" stroke-width="3.02" stroke-linecap="round"/>
  <line x1="71.413" y1="63.113" x2="73.579" y2="60.814" stroke="#7065f1" stroke-width="3.01" stroke-linecap="round"/>
  <line x1="73.579" y1="60.814" x2="75.388" y2="58.364" stroke="#6e66f1" stroke-width="3.00" stroke-linecap="round"/>
  <line x1="75.388" y1="58.364" x2="76.838" y2="55.812" stroke="#6d67f0" stroke-width="2.99" stroke-linecap="round"/>
  <line x1="76.838" y1="55.812" x2="77.933" y2="53.202" stroke="#6c68ef" stroke-width="2.97" stroke-linecap="round"/>
  <line x1="77.933" y1="53.202" x2="78.682" y2="50.578" stroke="#6a69ee" stroke-width="2.96" stroke-linecap="round"/>
  <line x1="78.682" y1="50.578" x2="79.098" y2="47.981" stroke="#696aee" stroke-width="2.95" stroke-linecap="round"/>
  <line x1="79.098" y1="47.981" x2="79.197" y2="45.447" stroke="#686bed" stroke-width="2.94" stroke-linecap="round"/>
  <line x1="79.197" y1="45.447" x2="79.001" y2="43.010" stroke="#666cec" stroke-width="2.93" stroke-linecap="round"/>
  <line x1="79.001" y1="43.010" x2="78.534" y2="40.699" stroke="#656deb" stroke-width="2.92" stroke-linecap="round"/>
  <line x1="78.534" y1="40.699" x2="77.822" y2="38.541" stroke="#636eeb" stroke-width="2.91" stroke-linecap="round"/>
  <line x1="77.822" y1="38.541" x2="76.892" y2="36.557" stroke="#626fea" stroke-width="2.90" stroke-linecap="round"/>
  <line x1="76.892" y1="36.557" x2="75.774" y2="34.765" stroke="#6170e9" stroke-width="2.89" stroke-linecap="round"/>
  <line x1="75.774" y1="34.765" x2="74.498" y2="33.178" stroke="#5f71e8" stroke-width="2.88" stroke-linecap="round"/>
  <line x1="74.498" y1="33.178" x2="73.095" y2="31.805" stroke="#5e71e8" stroke-width="2.86" stroke-linecap="round"/>
  <line x1="73.095" y1="31.805" x2="71.594" y2="30.652" stroke="#5d72e7" stroke-width="2.85" stroke-linecap="round"/>
  <line x1="71.594" y1="30.652" x2="70.024" y2="29.720" stroke="#5b73e6" stroke-width="2.84" stroke-linecap="round"/>
  <line x1="70.024" y1="29.720" x2="68.415" y2="29.009" stroke="#5a74e5" stroke-width="2.83" stroke-linecap="round"/>
  <line x1="68.415" y1="29.009" x2="66.793" y2="28.513" stroke="#5975e5" stroke-width="2.82" stroke-linecap="round"/>
  <line x1="66.793" y1="28.513" x2="65.184" y2="28.224" stroke="#5776e4" stroke-width="2.81" stroke-linecap="round"/>
  <line x1="65.184" y1="28.224" x2="63.610" y2="28.133" stroke="#5677e3" stroke-width="2.80" stroke-linecap="round"/>
  <line x1="63.610" y1="28.133" x2="62.093" y2="28.226" stroke="#5578e2" stroke-width="2.79" stroke-linecap="round"/>
  <line x1="62.093" y1="28.226" x2="60.652" y2="28.489" stroke="#5379e2" stroke-width="2.78" stroke-linecap="round"/>
  <line x1="60.652" y1="28.489" x2="59.302" y2="28.907" stroke="#527ae1" stroke-width="2.77" stroke-linecap="round"/>
  <line x1="59.302" y1="28.907" x2="58.058" y2="29.461" stroke="#507be0" stroke-width="2.75" stroke-linecap="round"/>
  <line x1="58.058" y1="29.461" x2="56.931" y2="30.135" stroke="#4f7cdf" stroke-width="2.74" stroke-linecap="round"/>
  <line x1="56.931" y1="30.135" x2="55.930" y2="30.909" stroke="#4e7ddf" stroke-width="2.73" stroke-linecap="round"/>
  <line x1="55.930" y1="30.909" x2="55.060" y2="31.766" stroke="#4c7ede" stroke-width="2.72" stroke-linecap="round"/>
  <line x1="55.060" y1="31.766" x2="54.326" y2="32.685" stroke="#4b7fdd" stroke-width="2.71" stroke-linecap="round"/>
  <line x1="54.326" y1="32.685" x2="53.729" y2="33.649" stroke="#4a80dc" stroke-width="2.70" stroke-linecap="round"/>
  <line x1="53.729" y1="33.649" x2="53.268" y2="34.641" stroke="#4881dc" stroke-width="2.69" stroke-linecap="round"/>
  <line x1="53.268" y1="34.641" x2="52.940" y2="35.643" stroke="#4782db" stroke-width="2.68" stroke-linecap="round"/>
  <line x1="52.940" y1="35.643" x2="52.742" y2="36.640" stroke="#4683da" stroke-width="2.67" stroke-linecap="round"/>
  <line x1="52.742" y1="36.640" x2="52.667" y2="37.617" stroke="#4484d9" stroke-width="2.66" stroke-linecap="round"/>
  <line x1="52.667" y1="37.617" x2="52.707" y2="38.561" stroke="#4384d9" stroke-width="2.64" stroke-linecap="round"/>
  <line x1="52.707" y1="38.561" x2="52.854" y2="39.460" stroke="#4185d8" stroke-width="2.63" stroke-linecap="round"/>
  <line x1="52.854" y1="39.460" x2="53.097" y2="40.304" stroke="#4086d7" stroke-width="2.62" stroke-linecap="round"/>
  <line x1="53.097" y1="40.304" x2="53.427" y2="41.083" stroke="#3f87d6" stroke-width="2.61" stroke-linecap="round"/>
  <line x1="53.427" y1="41.083" x2="53.833" y2="41.792" stroke="#3d88d6" stroke-width="2.60" stroke-linecap="round"/>
  <line x1="53.833" y1="41.792" x2="54.302" y2="42.423" stroke="#3c89d5" stroke-width="2.59" stroke-linecap="round"/>
  <line x1="54.302" y1="42.423" x2="54.824" y2="42.974" stroke="#3b8ad4" stroke-width="2.58" stroke-linecap="round"/>
  <line x1="54.824" y1="42.974" x2="55.387" y2="43.441" stroke="#398bd3" stroke-width="2.57" stroke-linecap="round"/>
  <line x1="55.387" y1="43.441" x2="55.980" y2="43.823" stroke="#388cd3" stroke-width="2.56" stroke-linecap="round"/>
  <line x1="55.980" y1="43.823" x2="56.591" y2="44.121" stroke="#378dd2" stroke-width="2.55" stroke-linecap="round"/>
  <line x1="56.591" y1="44.121" x2="57.210" y2="44.337" stroke="#358ed1" stroke-width="2.53" stroke-linecap="round"/>
  <line x1="57.210" y1="44.337" x2="57.827" y2="44.471" stroke="#348fd0" stroke-width="2.52" stroke-linecap="round"/>
  <line x1="57.827" y1="44.471" x2="58.433" y2="44.530" stroke="#3390d0" stroke-width="2.51" stroke-linecap="round"/>
  <line x1="58.433" y1="44.530" x2="59.020" y2="44.516" stroke="#3191cf" stroke-width="2.50" stroke-linecap="round"/>
  <line x1="59.020" y1="44.516" x2="59.581" y2="44.435" stroke="#3092ce" stroke-width="2.49" stroke-linecap="round"/>
  <line x1="59.581" y1="44.435" x2="60.108" y2="44.294" stroke="#2e93cd" stroke-width="2.48" stroke-linecap="round"/>
  <line x1="60.108" y1="44.294" x2="60.596" y2="44.098" stroke="#2d94cd" stroke-width="2.47" stroke-linecap="round"/>
  <line x1="60.596" y1="44.098" x2="61.041" y2="43.854" stroke="#2c95cc" stroke-width="2.46" stroke-linecap="round"/>
  <line x1="61.041" y1="43.854" x2="61.439" y2="43.569" stroke="#2a96cb" stroke-width="2.45" stroke-linecap="round"/>
  <line x1="61.439" y1="43.569" x2="61.788" y2="43.251" stroke="#2997ca" stroke-width="2.44" stroke-linecap="round"/>
  <line x1="61.788" y1="43.251" x2="62.084" y2="42.907" stroke="#2897ca" stroke-width="2.42" stroke-linecap="round"/>
  <line x1="62.084" y1="42.907" x2="62.329" y2="42.543" stroke="#2698c9" stroke-width="2.41" stroke-linecap="round"/>
  <line x1="62.329" y1="42.543" x2="62.521" y2="42.167" stroke="#2599c8" stroke-width="2.40" stroke-linecap="round"/>
  <line x1="62.521" y1="42.167" x2="62.662" y2="41.785" stroke="#249ac7" stroke-width="2.39" stroke-linecap="round"/>
  <line x1="62.662" y1="41.785" x2="62.754" y2="41.403" stroke="#229bc7" stroke-width="2.38" stroke-linecap="round"/>
  <line x1="62.754" y1="41.403" x2="62.797" y2="41.027" stroke="#219cc6" stroke-width="2.37" stroke-linecap="round"/>
  <line x1="62.797" y1="41.027" x2="62.795" y2="40.662" stroke="#1f9dc5" stroke-width="2.36" stroke-linecap="round"/>
  <line x1="62.795" y1="40.662" x2="62.752" y2="40.313" stroke="#1e9ec4" stroke-width="2.35" stroke-linecap="round"/>
  <line x1="62.752" y1="40.313" x2="62.670" y2="39.983" stroke="#1d9fc4" stroke-width="2.34" stroke-linecap="round"/>
  <line x1="62.670" y1="39.983" x2="62.554" y2="39.677" stroke="#1ba0c3" stroke-width="2.33" stroke-linecap="round"/>
  <line x1="62.554" y1="39.677" x2="62.407" y2="39.398" stroke="#1aa1c2" stroke-width="2.31" stroke-linecap="round"/>
  <line x1="62.407" y1="39.398" x2="62.235" y2="39.147" stroke="#19a2c1" stroke-width="2.30" stroke-linecap="round"/>
  <line x1="62.235" y1="39.147" x2="62.042" y2="38.927" stroke="#17a3c1" stroke-width="2.29" stroke-linecap="round"/>
  <line x1="62.042" y1="38.927" x2="61.831" y2="38.739" stroke="#16a4c0" stroke-width="2.28" stroke-linecap="round"/>
  <line x1="61.831" y1="38.739" x2="61.608" y2="38.582" stroke="#15a5bf" stroke-width="2.27" stroke-linecap="round"/>
  <line x1="61.608" y1="38.582" x2="61.377" y2="38.458" stroke="#13a6be" stroke-width="2.26" stroke-linecap="round"/>
  <line x1="61.377" y1="38.458" x2="61.141" y2="38.366" stroke="#12a7be" stroke-width="2.25" stroke-linecap="round"/>
  <line x1="61.141" y1="38.366" x2="60.904" y2="38.305" stroke="#11a8bd" stroke-width="2.24" stroke-linecap="round"/>
  <line x1="60.904" y1="38.305" x2="60.671" y2="38.274" stroke="#0fa9bc" stroke-width="2.23" stroke-linecap="round"/>
  <line x1="60.671" y1="38.274" x2="60.444" y2="38.271" stroke="#0eaabb" stroke-width="2.22" stroke-linecap="round"/>
  <line x1="60.444" y1="38.271" x2="60.226" y2="38.294" stroke="#0caabb" stroke-width="2.20" stroke-linecap="round"/>
  <line x1="60.226" y1="38.294" x2="60.021" y2="38.341" stroke="#0babba" stroke-width="2.19" stroke-linecap="round"/>
  <line x1="60.021" y1="38.341" x2="59.829" y2="38.409" stroke="#0aacb9" stroke-width="2.18" stroke-linecap="round"/>
  <line x1="59.829" y1="38.409" x2="59.654" y2="38.497" stroke="#08adb8" stroke-width="2.17" stroke-linecap="round"/>
  <line x1="59.654" y1="38.497" x2="59.496" y2="38.601" stroke="#07aeb8" stroke-width="2.16" stroke-linecap="round"/>
  <line x1="59.496" y1="38.601" x2="59.357" y2="38.718" stroke="#06afb7" stroke-width="2.15" stroke-linecap="round"/>
  <line x1="59.357" y1="38.718" x2="59.237" y2="38.847" stroke="#04b0b6" stroke-width="2.14" stroke-linecap="round"/>
  <line x1="59.237" y1="38.847" x2="59.138" y2="38.984" stroke="#03b1b5" stroke-width="2.13" stroke-linecap="round"/>
  <line x1="59.138" y1="38.984" x2="59.058" y2="39.126" stroke="#02b2b5" stroke-width="2.12" stroke-linecap="round"/>
  <line x1="59.058" y1="39.126" x2="58.998" y2="39.272" stroke="#00b3b4" stroke-width="2.11" stroke-linecap="round"/>
  <line x1="58.998" y1="39.272" x2="58.957" y2="39.418" stroke="#00b4b3" stroke-width="2.09" stroke-linecap="round"/>
  <line x1="58.957" y1="39.418" x2="58.935" y2="39.563" stroke="#00b4b3" stroke-width="2.08" stroke-linecap="round"/>
  <line x1="58.935" y1="39.563" x2="58.930" y2="39.704" stroke="#00b5b2" stroke-width="2.07" stroke-linecap="round"/>
  <line x1="58.930" y1="39.704" x2="58.942" y2="39.839" stroke="#00b6b2" stroke-width="2.06" stroke-linecap="round"/>
  <line x1="58.942" y1="39.839" x2="58.969" y2="39.968" stroke="#00b6b2" stroke-width="2.05" stroke-linecap="round"/>
  <line x1="58.969" y1="39.968" x2="59.009" y2="40.087" stroke="#00b7b1" stroke-width="2.04" stroke-linecap="round"/>
  <line x1="59.009" y1="40.087" x2="59.062" y2="40.197" stroke="#00b7b1" stroke-width="2.03" stroke-linecap="round"/>
  <line x1="59.062" y1="40.197" x2="59.124" y2="40.297" stroke="#00b8b0" stroke-width="2.02" stroke-linecap="round"/>
  <line x1="59.124" y1="40.297" x2="59.196" y2="40.385" stroke="#00b8b0" stroke-width="2.01" stroke-linecap="round"/>
  <line x1="59.196" y1="40.385" x2="59.275" y2="40.460" stroke="#00b9af" stroke-width="2.00" stroke-linecap="round"/>
  <line x1="59.275" y1="40.460" x2="59.358" y2="40.524" stroke="#00baaf" stroke-width="1.98" stroke-linecap="round"/>
  <line x1="59.358" y1="40.524" x2="59.446" y2="40.575" stroke="#00baae" stroke-width="1.97" stroke-linecap="round"/>
  <line x1="59.446" y1="40.575" x2="59.536" y2="40.614" stroke="#00bbae" stroke-width="1.96" stroke-linecap="round"/>
  <line x1="59.536" y1="40.614" x2="59.626" y2="40.641" stroke="#00bbae" stroke-width="1.95" stroke-linecap="round"/>
  <line x1="59.626" y1="40.641" x2="59.716" y2="40.657" stroke="#00bcad" stroke-width="1.94" stroke-linecap="round"/>
  <line x1="59.716" y1="40.657" x2="59.803" y2="40.661" stroke="#00bcad" stroke-width="1.93" stroke-linecap="round"/>
  <line x1="59.803" y1="40.661" x2="59.888" y2="40.656" stroke="#00bdac" stroke-width="1.92" stroke-linecap="round"/>
  <line x1="59.888" y1="40.656" x2="59.968" y2="40.640" stroke="#00beac" stroke-width="1.91" stroke-linecap="round"/>
  <line x1="59.968" y1="40.640" x2="60.043" y2="40.617" stroke="#00beab" stroke-width="1.90" stroke-linecap="round"/>
  <line x1="60.043" y1="40.617" x2="60.112" y2="40.585" stroke="#00bfab" stroke-width="1.89" stroke-linecap="round"/>
  <line x1="60.112" y1="40.585" x2="60.174" y2="40.548" stroke="#00bfaa" stroke-width="1.87" stroke-linecap="round"/>
  <line x1="60.174" y1="40.548" x2="60.230" y2="40.504" stroke="#00c0aa" stroke-width="1.86" stroke-linecap="round"/>
  <line x1="60.230" y1="40.504" x2="60.278" y2="40.456" stroke="#00c1aa" stroke-width="1.85" stroke-linecap="round"/>
  <line x1="60.278" y1="40.456" x2="60.318" y2="40.405" stroke="#00c1a9" stroke-width="1.84" stroke-linecap="round"/>
  <line x1="60.318" y1="40.405" x2="60.351" y2="40.351" stroke="#00c2a9" stroke-width="1.83" stroke-linecap="round"/>
  <line x1="60.351" y1="40.351" x2="60.376" y2="40.296" stroke="#00c2a8" stroke-width="1.82" stroke-linecap="round"/>
  <line x1="60.376" y1="40.296" x2="60.394" y2="40.240" stroke="#00c3a8" stroke-width="1.81" stroke-linecap="round"/>
  <line x1="60.394" y1="40.240" x2="60.405" y2="40.184" stroke="#00c3a7" stroke-width="1.80" stroke-linecap="round"/>
  <line x1="60.405" y1="40.184" x2="60.409" y2="40.130" stroke="#00c4a7" stroke-width="1.79" stroke-linecap="round"/>
  <line x1="60.409" y1="40.130" x2="60.406" y2="40.077" stroke="#00c5a7" stroke-width="1.78" stroke-linecap="round"/>
  <line x1="60.406" y1="40.077" x2="60.398" y2="40.028" stroke="#00c5a6" stroke-width="1.76" stroke-linecap="round"/>
  <line x1="60.398" y1="40.028" x2="60.384" y2="39.981" stroke="#00c6a6" stroke-width="1.75" stroke-linecap="round"/>
  <line x1="60.384" y1="39.981" x2="60.365" y2="39.937" stroke="#00c6a5" stroke-width="1.74" stroke-linecap="round"/>
  <line x1="60.365" y1="39.937" x2="60.342" y2="39.898" stroke="#00c7a5" stroke-width="1.73" stroke-linecap="round"/>
  <line x1="60.342" y1="39.898" x2="60.316" y2="39.863" stroke="#00c8a4" stroke-width="1.72" stroke-linecap="round"/>
  <line x1="60.316" y1="39.863" x2="60.287" y2="39.833" stroke="#00c8a4" stroke-width="1.71" stroke-linecap="round"/>
  <line x1="60.287" y1="39.833" x2="60.255" y2="39.807" stroke="#00c9a3" stroke-width="1.70" stroke-linecap="round"/>
  <line x1="60.255" y1="39.807" x2="60.222" y2="39.786" stroke="#00c9a3" stroke-width="1.69" stroke-linecap="round"/>
  <line x1="60.222" y1="39.786" x2="60.188" y2="39.770" stroke="#00caa3" stroke-width="1.68" stroke-linecap="round"/>
  <line x1="60.188" y1="39.770" x2="60.154" y2="39.758" stroke="#00caa2" stroke-width="1.67" stroke-linecap="round"/>
  <line x1="60.154" y1="39.758" x2="60.119" y2="39.751" stroke="#00cba2" stroke-width="1.65" stroke-linecap="round"/>
  <line x1="60.119" y1="39.751" x2="60.086" y2="39.748" stroke="#00cca1" stroke-width="1.64" stroke-linecap="round"/>
  <line x1="60.086" y1="39.748" x2="60.053" y2="39.748" stroke="#00cca1" stroke-width="1.63" stroke-linecap="round"/>
  <line x1="60.053" y1="39.748" x2="60.022" y2="39.753" stroke="#00cda0" stroke-width="1.62" stroke-linecap="round"/>
  <line x1="60.022" y1="39.753" x2="59.992" y2="39.761" stroke="#00cda0" stroke-width="1.61" stroke-linecap="round"/>
  <line x1="59.992" y1="39.761" x2="59.965" y2="39.772" stroke="#00ce9f" stroke-width="1.60" stroke-linecap="round"/>
  <line x1="59.965" y1="39.772" x2="59.941" y2="39.786" stroke="#00ce9f" stroke-width="1.59" stroke-linecap="round"/>
  <line x1="59.941" y1="39.786" x2="59.919" y2="39.802" stroke="#00cf9f" stroke-width="1.58" stroke-linecap="round"/>
  <line x1="59.919" y1="39.802" x2="59.899" y2="39.820" stroke="#00d09e" stroke-width="1.57" stroke-linecap="round"/>
  <line x1="59.899" y1="39.820" x2="59.883" y2="39.839" stroke="#00d09e" stroke-width="1.56" stroke-linecap="round"/>
  <line x1="59.883" y1="39.839" x2="59.870" y2="39.859" stroke="#00d19d" stroke-width="1.54" stroke-linecap="round"/>
  <line x1="59.870" y1="39.859" x2="59.859" y2="39.880" stroke="#00d19d" stroke-width="1.53" stroke-linecap="round"/>
  <line x1="59.859" y1="39.880" x2="59.851" y2="39.902" stroke="#00d29c" stroke-width="1.52" stroke-linecap="round"/>
  <line x1="59.851" y1="39.902" x2="59.846" y2="39.923" stroke="#00d39c" stroke-width="1.51" stroke-linecap="round"/>
  <line x1="59.846" y1="39.923" x2="59.844" y2="39.944" stroke="#00d39c" stroke-width="1.50" stroke-linecap="round"/>
  <line x1="59.844" y1="39.944" x2="59.844" y2="39.964" stroke="#00d49b" stroke-width="1.49" stroke-linecap="round"/>
  <line x1="59.844" y1="39.964" x2="59.847" y2="39.984" stroke="#00d49b" stroke-width="1.48" stroke-linecap="round"/>
  <line x1="59.847" y1="39.984" x2="59.852" y2="40.002" stroke="#00d59a" stroke-width="1.47" stroke-linecap="round"/>
  <line x1="59.852" y1="40.002" x2="59.858" y2="40.019" stroke="#00d59a" stroke-width="1.46" stroke-linecap="round"/>
  <line x1="59.858" y1="40.019" x2="59.866" y2="40.034" stroke="#00d699" stroke-width="1.45" stroke-linecap="round"/>
  <line x1="59.866" y1="40.034" x2="59.876" y2="40.048" stroke="#00d799" stroke-width="1.43" stroke-linecap="round"/>
  <line x1="59.876" y1="40.048" x2="59.887" y2="40.060" stroke="#00d798" stroke-width="1.42" stroke-linecap="round"/>
  <line x1="59.887" y1="40.060" x2="59.899" y2="40.071" stroke="#00d898" stroke-width="1.41" stroke-linecap="round"/>
  <line x1="59.899" y1="40.071" x2="59.911" y2="40.079" stroke="#00d898" stroke-width="1.40" stroke-linecap="round"/>
  <line x1="59.911" y1="40.079" x2="59.924" y2="40.086" stroke="#00d997" stroke-width="1.39" stroke-linecap="round"/>
  <line x1="59.924" y1="40.086" x2="59.937" y2="40.091" stroke="#00d997" stroke-width="1.38" stroke-linecap="round"/>
  <line x1="59.937" y1="40.091" x2="59.950" y2="40.095" stroke="#00da96" stroke-width="1.37" stroke-linecap="round"/>
  <line x1="59.950" y1="40.095" x2="59.963" y2="40.096" stroke="#00db96" stroke-width="1.36" stroke-linecap="round"/>
  <line x1="59.963" y1="40.096" x2="59.976" y2="40.096" stroke="#00db95" stroke-width="1.35" stroke-linecap="round"/>
  <line x1="59.976" y1="40.096" x2="59.988" y2="40.095" stroke="#00dc95" stroke-width="1.34" stroke-linecap="round"/>
  <line x1="59.988" y1="40.095" x2="59.999" y2="40.092" stroke="#00dc94" stroke-width="1.32" stroke-linecap="round"/>
  <line x1="59.999" y1="40.092" x2="60.010" y2="40.088" stroke="#00dd94" stroke-width="1.31" stroke-linecap="round"/>
  <line x1="60.010" y1="40.088" x2="60.020" y2="40.083" stroke="#00de94" stroke-width="1.30" stroke-linecap="round"/>
  <line x1="60.020" y1="40.083" x2="60.029" y2="40.078" stroke="#00de93" stroke-width="1.29" stroke-linecap="round"/>
  <line x1="60.029" y1="40.078" x2="60.036" y2="40.071" stroke="#00df93" stroke-width="1.28" stroke-linecap="round"/>
  <line x1="60.036" y1="40.071" x2="60.043" y2="40.064" stroke="#00df92" stroke-width="1.27" stroke-linecap="round"/>
  <line x1="60.043" y1="40.064" x2="60.048" y2="40.056" stroke="#00e092" stroke-width="1.26" stroke-linecap="round"/>
  <line x1="60.048" y1="40.056" x2="60.053" y2="40.048" stroke="#00e091" stroke-width="1.25" stroke-linecap="round"/>
  <line x1="60.053" y1="40.048" x2="60.056" y2="40.040" stroke="#00e191" stroke-width="1.24" stroke-linecap="round"/>
  <line x1="60.056" y1="40.040" x2="60.058" y2="40.032" stroke="#00e291" stroke-width="1.23" stroke-linecap="round"/>
  <line x1="60.058" y1="40.032" x2="60.059" y2="40.024" stroke="#00e290" stroke-width="1.21" stroke-linecap="round"/>
  <line x1="60.059" y1="40.024" x2="60.060" y2="40.016" stroke="#00e390" stroke-width="1.20" stroke-linecap="round"/>
  <line x1="60.060" y1="40.016" x2="60.059" y2="40.009" stroke="#00e38f" stroke-width="1.19" stroke-linecap="round"/>
  <line x1="60.059" y1="40.009" x2="60.057" y2="40.001" stroke="#00e48f" stroke-width="1.18" stroke-linecap="round"/>
  <line x1="60.057" y1="40.001" x2="60.055" y2="39.995" stroke="#00e58e" stroke-width="1.17" stroke-linecap="round"/>
  <line x1="60.055" y1="39.995" x2="60.052" y2="39.989" stroke="#00e58e" stroke-width="1.16" stroke-linecap="round"/>
  <line x1="60.052" y1="39.989" x2="60.049" y2="39.983" stroke="#00e68d" stroke-width="1.15" stroke-linecap="round"/>
  <line x1="60.049" y1="39.983" x2="60.045" y2="39.978" stroke="#00e68d" stroke-width="1.14" stroke-linecap="round"/>
  <line x1="60.045" y1="39.978" x2="60.040" y2="39.974" stroke="#00e78d" stroke-width="1.13" stroke-linecap="round"/>
  <line x1="60.040" y1="39.974" x2="60.036" y2="39.971" stroke="#00e78c" stroke-width="1.12" stroke-linecap="round"/>
  <line x1="60.036" y1="39.971" x2="60.031" y2="39.968" stroke="#00e88c" stroke-width="1.10" stroke-linecap="round"/>
  <line x1="60.031" y1="39.968" x2="60.026" y2="39.966" stroke="#00e98b" stroke-width="1.09" stroke-linecap="round"/>
  <line x1="60.026" y1="39.966" x2="60.021" y2="39.964" stroke="#00e98b" stroke-width="1.08" stroke-linecap="round"/>
  <line x1="60.021" y1="39.964" x2="60.016" y2="39.963" stroke="#00ea8a" stroke-width="1.07" stroke-linecap="round"/>
  <line x1="60.016" y1="39.963" x2="60.011" y2="39.963" stroke="#00ea8a" stroke-width="1.06" stroke-linecap="round"/>
  <line x1="60.011" y1="39.963" x2="60.006" y2="39.963" stroke="#00eb89" stroke-width="1.05" stroke-linecap="round"/>
  <line x1="60.006" y1="39.963" x2="60.002" y2="39.964" stroke="#00eb89" stroke-width="1.04" stroke-linecap="round"/>
  <line x1="60.002" y1="39.964" x2="59.997" y2="39.966" stroke="#00ec89" stroke-width="1.03" stroke-linecap="round"/>
  <line x1="59.997" y1="39.966" x2="59.994" y2="39.967" stroke="#00ed88" stroke-width="1.02" stroke-linecap="round"/>
  <line x1="59.994" y1="39.967" x2="59.990" y2="39.970" stroke="#00ed88" stroke-width="1.01" stroke-linecap="round"/>
</svg>
